<svg width="16" height="16" viewBox="0 0 16 16" fill="none" xmlns="http://www.w3.org/2000/svg">
<path d="M7.82256 1.00197L4.13508 7.39288L2.21495 4.06449C3.44482 2.26066 5.4943 1.06075 7.82256 1.00197Z" fill="#939CA3"/>
<path d="M13.9688 4.34746H6.5941L8.51484 1.01846C10.8215 1.18718 12.8214 2.47785 13.9688 4.34746Z" fill="#939CA3"/>
<path d="M14.9999 8.00198C14.9999 6.9111 14.7491 5.87777 14.3027 4.95652H10.46L14.1477 11.3483C14.691 10.3534 14.9999 9.21317 14.9999 8.00198Z" fill="#939CA3"/>
<path d="M1.85199 4.65565L5.54008 11.0475H1.69738C1.2509 10.1262 1.00011 9.0929 1.00011 8.00201C1.00011 6.79083 1.30903 5.65061 1.85199 4.65565Z" fill="#939CA3"/>
<path d="M11.8658 8.61106L8.17833 15.002C10.5066 14.9432 12.5561 13.7433 13.7859 11.9391L11.8658 8.61106Z" fill="#939CA3"/>
<path d="M2.03196 11.6565H9.40662L7.48588 14.9855C5.17922 14.8168 3.17935 13.5261 2.03196 11.6565Z" fill="#939CA3"/>
</svg>
