<svg width="16" height="16" viewBox="0 0 16 16" fill="none" xmlns="http://www.w3.org/2000/svg">
<path fill-rule="evenodd" clip-rule="evenodd" d="M15 8.00338C15 11.8328 11.8294 15.0034 8 15.0034C4.17746 15.0034 1 11.8328 1 8.00338C1 4.18085 4.17059 1.00339 7.99315 1.00339C11.8226 1.00339 15 4.18085 15 8.00338ZM5.05591 8.0034C5.05591 6.38381 5.5363 4.8191 6.40101 3.56322C6.56572 3.31616 6.86081 3.26126 7.08727 3.42597C7.31373 3.59067 7.34805 3.87891 7.18337 4.1191C6.42846 5.18283 6.00983 6.56225 6.00983 8.0034C6.00983 9.424 6.43532 10.8171 7.18337 11.8878C7.34805 12.1211 7.31373 12.4093 7.08727 12.5809C6.86766 12.7319 6.57258 12.677 6.40101 12.4368C5.5363 11.2015 5.05591 9.62305 5.05591 8.0034ZM7.26572 8.00339C7.26572 6.80243 7.61574 5.65635 8.2471 4.79851C8.41869 4.56517 8.70002 4.51027 8.92654 4.66811C9.13924 4.81909 9.19417 5.12106 9.02258 5.36811C8.52164 6.06125 8.2334 7.01515 8.2334 8.00339C8.2334 8.98477 8.52164 9.93869 9.02258 10.6318C9.19417 10.8789 9.13924 11.1809 8.92654 11.3318C8.70002 11.4966 8.41869 11.4348 8.2471 11.2083C7.61574 10.323 7.26572 9.17698 7.26572 8.00339ZM10.0794 6.02008C9.702 6.54851 9.48239 7.28284 9.48239 8.00339C9.48239 8.74461 9.702 9.47892 10.0794 9.97301C10.2304 10.1926 10.5324 10.2544 10.752 10.1034C10.9922 9.92499 11.0402 9.6299 10.8549 9.37597C10.601 9.02595 10.45 8.51815 10.45 8.00339C10.45 7.46813 10.601 6.96028 10.8549 6.62401C11.0471 6.37008 10.999 6.06126 10.752 5.88969C10.5324 5.74557 10.2373 5.80733 10.0794 6.02008Z" fill="#939CA3"/>
</svg>
